<svg xmlns="http://www.w3.org/2000/svg" width="92.627" height="115.628" viewBox="0 0 92.627 115.628">
  <path id="Path_10028" data-name="Path 10028" d="M131.624,234.182a1.251,1.251,0,0,1-1.23-1.23c.013-.127.038-.283.038-.321a68.726,68.726,0,0,0,.129-25.341l-.346-1.929-1.115-6.145H79.818a2.35,2.35,0,0,1-2.339-2.345V135.839a2.337,2.337,0,0,1,2.333-2.333h72.994a2.341,2.341,0,0,1,2.333,2.333l-.025,50.439c-.045,5.048-1.9,14.275-10.489,29.571-4.767,8.49-10.277,16.23-11.514,17.46a6.429,6.429,0,0,1-1.192.852,1.5,1.5,0,0,1-.3.019Zm0,7.478c2.588,0,4.179-.9,6.2-2.55,1.923-1.557,8.291-10.643,13.321-19.6,7.516-13.392,11.366-24.547,11.45-33.159l.025-50.51a9.827,9.827,0,0,0-9.817-9.81H79.811A9.823,9.823,0,0,0,70,135.84L70,196.87a9.835,9.835,0,0,0,9.817,9.823h43.034l.353,1.929a62.15,62.15,0,0,1,.987,11,60.625,60.625,0,0,1-1.1,11.6,9.819,9.819,0,0,0-.173,1.718,8.726,8.726,0,0,0,8.707,8.72Z" transform="translate(-69.995 -126.032)" fill="#fff" opacity="0.11"/>
</svg>
