<svg xmlns="http://www.w3.org/2000/svg" width="73.914" height="61.975" viewBox="0 0 73.914 61.975">
  <g id="donate-svgrepo-com" transform="translate(1.25 1.25)">
    <path id="Path_6108" data-name="Path 6108" d="M17.659,2.75a10.9,10.9,0,0,1,7.3,2.807A10.913,10.913,0,0,1,40,21.358L27.631,33.828a3.782,3.782,0,0,1-5.223.112l-.007-.006c-2.892-2.707-5.691-5.6-8.4-8.391-1.336-1.379-2.717-2.8-4.086-4.184A10.915,10.915,0,0,1,17.659,2.75Zm7.3,5.808h0a1.25,1.25,0,0,1-.887-.37l-.449-.453a8.4,8.4,0,0,0-11.931,0,8.421,8.421,0,0,0,0,11.862c1.38,1.39,2.766,2.822,4.107,4.206,2.685,2.772,5.461,5.638,8.307,8.3a1.282,1.282,0,0,0,1.75-.039L38.229,19.6a8.443,8.443,0,0,0,0-11.862,8.4,8.4,0,0,0-11.931,0l-.45.453A1.25,1.25,0,0,1,24.961,8.559Z" transform="translate(10.746 -4)" fill="#ff685b"/>
    <path id="Path_6109" data-name="Path 6109" d="M32.283,49.528a1.246,1.246,0,0,1-.884-.366L17.743,35.506a3.37,3.37,0,0,1-.993-2.4V14.356a6.606,6.606,0,1,1,13.212,0V30.424a1.25,1.25,0,1,1-2.5,0V14.356a4.106,4.106,0,1,0-8.212,0V33.108a.886.886,0,0,0,.261.631L33.167,47.394a1.25,1.25,0,0,1-.884,2.134Z" transform="translate(-18 11.197)" fill="#ff685b"/>
    <path id="Path_6110" data-name="Path 6110" d="M30.568,36.845a1.25,1.25,0,0,1-1.25-1.25V24.27A5.853,5.853,0,0,0,27.593,20.1l-3.2-3.2a5.883,5.883,0,0,0-6.8-1.1l-1.582.791a.48.48,0,0,0-.125.768l3.064,3.064A1.25,1.25,0,1,1,17.187,22.2l-3.064-3.064A2.98,2.98,0,0,1,14.9,14.36l1.582-.791a8.38,8.38,0,0,1,9.686,1.572l3.2,3.2a8.336,8.336,0,0,1,2.458,5.934V35.6A1.25,1.25,0,0,1,30.568,36.845Z" transform="translate(-3.788 23.879)" fill="#ff685b"/>
    <path id="Path_6111" data-name="Path 6111" d="M2,49.528a1.25,1.25,0,0,1-.884-2.134L14.771,33.738a.886.886,0,0,0,.261-.631V14.356a4.106,4.106,0,1,0-8.212,0V30.424a1.25,1.25,0,1,1-2.5,0V14.356a6.606,6.606,0,1,1,13.212,0V33.108a3.37,3.37,0,0,1-.994,2.4L2.884,49.162A1.246,1.246,0,0,1,2,49.528Z" transform="translate(55.131 11.197)" fill="#ff685b"/>
    <path id="Path_6112" data-name="Path 6112" d="M5,36.845A1.25,1.25,0,0,1,3.75,35.6V24.27a8.337,8.337,0,0,1,2.458-5.934l3.2-3.2A8.381,8.381,0,0,1,19.09,13.57l1.581.79a2.98,2.98,0,0,1,.775,4.772L18.381,22.2a1.25,1.25,0,0,1-1.768-1.768l3.064-3.064a.48.48,0,0,0-.125-.768l-1.581-.79a5.884,5.884,0,0,0-6.8,1.1l-3.2,3.2A5.853,5.853,0,0,0,6.25,24.27V35.6A1.25,1.25,0,0,1,5,36.845Z" transform="translate(39.634 23.879)" fill="#ff685b"/>
  </g>
</svg>
