<svg xmlns="http://www.w3.org/2000/svg" width="28.92" height="30.3" viewBox="0 0 28.92 30.3">
  <g id="Future-vision-scenarios---Services-and-agencies-flow" transform="translate(-0.31 -0.32)">
    <g id="S_08.14.01_Service-V2---Content-steps-main-view" data-name="S#08.14.01_Service-V2---Content-steps-main-view" transform="translate(-989 -491)">
      <g id="Group-4" transform="translate(949 205)">
        <g id="icon_30_info_price" data-name="icon/30/info/price" transform="translate(40 286)">
          <g id="riyal" transform="translate(0.46 0.47)">
            <path id="f2_155" d="M28.62,21.175h0A4.562,4.562,0,0,1,27.5,24.188h0A19.616,19.616,0,0,1,23.9,26.641h0a27.485,27.485,0,0,1-4.758,2.371h0q-.049.017-4.264.708h0q-1.7.28-2.009.28h0q-.132,0-.132-.033h0a8.1,8.1,0,0,1,1.926-.84h0q3.392-1.251,5.4-2.173h0a47.582,47.582,0,0,0,5.483-2.931h0q2.47-1.531,2.47-1.926h0q0-.082-1.087-2.256h0a10.867,10.867,0,0,1-.84-2.108h0a.253.253,0,0,1-.165-.231h0a6.931,6.931,0,0,1,.132-.889h0q.148-.79.247-.79h0a3.787,3.787,0,0,1,.576.576h0q1.284,1.416,1.185,1.515h0q-.082.082-.823-.247h0a9.71,9.71,0,0,0,.757,1.58h0A4.355,4.355,0,0,1,28.62,21.175Z" fill="#066058"/>
            <path id="f2_155_-_Outline" data-name="f2_155 - Outline" d="M26.3,15.674c.079,0,.115,0,.687.625.429.473.747.841.946,1.1.261.334.357.5.235.627a.225.225,0,0,1-.165.06,1.457,1.457,0,0,1-.5-.14c.1.226.288.6.628,1.236a4.514,4.514,0,0,1,.643,2,4.729,4.729,0,0,1-1.155,3.11,19.377,19.377,0,0,1-3.644,2.486,27.752,27.752,0,0,1-4.789,2.384c-.023.008-.06.02-4.286.713-1.149.19-1.814.282-2.033.282-.187,0-.282-.062-.282-.183,0-.137,0-.219,2.024-.98,2.248-.829,4.061-1.559,5.391-2.169A47.656,47.656,0,0,0,25.462,23.9c2.091-1.3,2.368-1.686,2.4-1.788-.037-.1-.235-.533-1.068-2.2a11.225,11.225,0,0,1-.834-2.076.386.386,0,0,1-.186-.329,6.878,6.878,0,0,1,.134-.916C26.052,15.8,26.141,15.674,26.3,15.674Zm1.516,2.064A15.975,15.975,0,0,0,26.764,16.5c-.222-.243-.352-.377-.428-.452a5.15,5.15,0,0,0-.137.593,6.44,6.44,0,0,0-.129.861c0,.019,0,.056.082.1l.061.03.017.066a10.77,10.77,0,0,0,.828,2.078,14.81,14.81,0,0,1,1.1,2.323c0,.155,0,.479-2.541,2.054a47.954,47.954,0,0,1-5.5,2.94c-1.336.613-3.156,1.346-5.411,2.177-.654.246-1.079.416-1.355.534.342-.045.841-.122,1.493-.229,3.35-.55,4.166-.688,4.248-.7a27.573,27.573,0,0,0,4.723-2.356,19.717,19.717,0,0,0,3.568-2.422,4.434,4.434,0,0,0,1.082-2.914,4.239,4.239,0,0,0-.608-1.856A8.012,8.012,0,0,1,27.09,17.7l-.052-.28.261.116C27.545,17.641,27.708,17.7,27.815,17.738Z" fill="#066058"/>
            <path id="path_ecc6832c-40b2-4495-b756-438b4260d30e" d="M22.973,18.21a2.679,2.679,0,0,1-.823,2.074,2.072,2.072,0,0,1-1.432.609q-.231,0-.231-.461,0-1.186.626-1.186a1.785,1.785,0,0,0,.807-.2q.395-.2.395-.428a2.031,2.031,0,0,0-.395-.914l-.4-.617a8.5,8.5,0,0,1,.173-.906,3.988,3.988,0,0,1,.206-.79q.148,0,.576.889A4.436,4.436,0,0,1,22.973,18.21ZM22.5,23.19l-.823,1.482L20,23.684,19.3,24.919l-1.712-1,.823-1.482,1.679.988.692-1.235Z" fill="#066058"/>
            <path id="path_ecc6832c-40b2-4495-b756-438b4260d30e_-_Outline" data-name="path_ecc6832c-40b2-4495-b756-438b4260d30e - Outline" d="M21.9,15.245c.132,0,.277.073.711.974a4.6,4.6,0,0,1,.509,1.992,2.834,2.834,0,0,1-.872,2.185,2.225,2.225,0,0,1-1.534.649c-.174,0-.381-.106-.381-.611,0-.886.261-1.336.776-1.336a1.644,1.644,0,0,0,.74-.182c.2-.1.312-.205.312-.294a1.837,1.837,0,0,0-.371-.833l-.419-.654V17.09a6.685,6.685,0,0,1,.176-.938c.058-.264.1-.465.14-.6C21.739,15.368,21.771,15.245,21.9,15.245Zm-1.186,5.5a1.936,1.936,0,0,0,1.331-.569,2.547,2.547,0,0,0,.775-1.964,4.309,4.309,0,0,0-.479-1.861,5.741,5.741,0,0,0-.372-.686c-.028.11-.069.283-.128.554-.12.551-.156.758-.166.835l.368.575a2.124,2.124,0,0,1,.418.995c0,.214-.161.4-.478.562a1.941,1.941,0,0,1-.874.213c-.118,0-.476,0-.476,1.036C20.637,20.616,20.67,20.743,20.718,20.743Zm.012,1.236L22.7,23.135l-.969,1.744-1.68-.988-.691,1.235L17.389,23.97l.969-1.745,1.68.988ZM22.3,23.245l-1.454-.853-.68,1.215,1.457.857Zm-2.368.252-1.457-.857-.677,1.219,1.454.853Z" fill="#066058"/>
            <path id="path_1622554124479" d="M21.129,19.264q.2,0,.2.428,0,1.185-.609,1.185-1.169,0-1.795-1.482a16.556,16.556,0,0,1-.939-4.446Q16.947,4.462,15.6,1.729a3.628,3.628,0,0,1,.222-.9A4.767,4.767,0,0,1,16.108,0a2.768,2.768,0,0,1,.4.823,15.291,15.291,0,0,1,.609,1.91,60.714,60.714,0,0,1,1.153,6.619q.329,2.8.675,5.6a11.236,11.236,0,0,0,.807,3.326,1.5,1.5,0,0,0,1.383.988" fill="#066058"/>
            <path id="path_1622554124479_-_Outline" data-name="path_1622554124479 - Outline" d="M20.718,21.027c-.842,0-1.492-.529-1.933-1.573a16.772,16.772,0,0,1-.95-4.488C17.149,8.024,16.35,3.593,15.463,1.8c-.033-.066-.059-.118.213-1.008.085-.278.153-.489.2-.629.071-.206.107-.309.23-.309s.181.035.534.918a15.517,15.517,0,0,1,.615,1.93,61.155,61.155,0,0,1,1.156,6.636c.215,1.827.442,3.71.675,5.6a11.169,11.169,0,0,0,.791,3.274l0,0a1.35,1.35,0,0,0,1.248.9c.158,0,.347.1.347.578C21.477,20.578,21.221,21.027,20.718,21.027ZM15.744,1.688c.9,1.847,1.7,6.3,2.389,13.247a16.5,16.5,0,0,0,.928,4.4c.395.935.937,1.39,1.656,1.39.3,0,.459-.348.459-1.035,0-.233-.048-.28-.049-.28a1.637,1.637,0,0,1-1.515-1.068,11.254,11.254,0,0,1-.822-3.373c-.233-1.89-.46-3.774-.675-5.6a60.851,60.851,0,0,0-1.149-6.6,15.209,15.209,0,0,0-.6-1.891c-.1-.258-.177-.429-.229-.543-.039.117-.094.289-.172.541A6,6,0,0,0,15.744,1.688Z" fill="#066058"/>
            <path id="f2_195" d="M15.032,20.554h0a5.5,5.5,0,0,1-.946,3.778,15.721,15.721,0,0,1-3.943,3h0a12.446,12.446,0,0,1-5.993,2.091h0q-3.54,0-4.083-3.82h0A5.3,5.3,0,0,1,0,24.8H0a9.321,9.321,0,0,1,.807-3.836h0q.263-.543.444-.543h0q.066,0,.066.132h0a2.089,2.089,0,0,1-.1.51h0a7.705,7.705,0,0,0-.477,2.568h0q0,4,4.116,4h0q2.091,0,5.7-2.091h0q3.276-1.877,3.573-2.651h0A2.709,2.709,0,0,0,14.193,22h0q-.1-1.91-1.251-8.364h0Q11.9,7.547,11.9,6.493h0q-.313-.23-.247-.362h0q.148-.379.444-1.086h0q.231-.511.313-.511h0a18.375,18.375,0,0,1,.971,2.206h0q.411.938.675,1.712h0a1.033,1.033,0,0,0-.066.2h0q-.1,0-.346-.263h0q-.231-.231-.609-.642h0Q13.995,12.93,15.032,20.554Z" fill="#066058"/>
            <path id="f2_195_-_Outline" data-name="f2_195 - Outline" d="M4.149,29.578c-2.435,0-3.859-1.328-4.232-3.949A5.47,5.47,0,0,1-.15,24.8a9.513,9.513,0,0,1,.82-3.9c.215-.444.389-.632.581-.632.036,0,.216.014.216.282a2.195,2.195,0,0,1-.1.551l0,.009a7.592,7.592,0,0,0-.469,2.518c0,2.591,1.3,3.851,3.966,3.851,1.361,0,3.252-.7,5.621-2.071,2.655-1.521,3.373-2.236,3.506-2.569a2.6,2.6,0,0,0,.058-.832c-.065-1.263-.486-4.07-1.249-8.346-.677-3.975-1.017-6.3-1.038-7.1-.127-.1-.331-.293-.235-.5.1-.253.248-.618.444-1.084.233-.516.327-.6.451-.6s.166,0,1.11,2.3c.274.624.5,1.2.678,1.721l.02.059-.028.056a.874.874,0,0,0-.054.167l-.028.114h-.117c-.116,0-.248-.09-.455-.311-.074-.074-.161-.164-.26-.268.607,3.356,1.246,7.495,1.9,12.313v.014a5.662,5.662,0,0,1-.98,3.879,15.93,15.93,0,0,1-3.983,3.039A12.645,12.645,0,0,1,4.149,29.578ZM1.158,20.661a2.083,2.083,0,0,0-.216.369A9.211,9.211,0,0,0,.15,24.8a5.178,5.178,0,0,0,.064.784c.353,2.485,1.64,3.693,3.935,3.693a12.366,12.366,0,0,0,5.917-2.07,15.668,15.668,0,0,0,3.9-2.971,5.376,5.376,0,0,0,.913-3.67c-.688-5.054-1.357-9.36-1.99-12.8L12.8,7.26l.352.383c.25.272.453.486.6.638.054.058.1.1.133.133-.169-.486-.384-1.028-.64-1.613-.508-1.238-.746-1.778-.856-2.008-.037.066-.087.165-.154.314-.193.462-.342.825-.44,1.076a.612.612,0,0,0,.195.19l.061.045v.076c0,.69.348,3.086,1.035,7.121.766,4.287,1.187,7.107,1.253,8.381a2.863,2.863,0,0,1-.071.938l0,.012c-.212.554-1.4,1.447-3.638,2.727-2.415,1.4-4.357,2.111-5.771,2.111-2.831,0-4.266-1.4-4.266-4.151a7.887,7.887,0,0,1,.485-2.614A2.856,2.856,0,0,0,1.158,20.661Z" fill="#066058"/>
          </g>
        </g>
      </g>
    </g>
  </g>
</svg>
