<svg xmlns="http://www.w3.org/2000/svg" width="23" height="22" viewBox="0 0 23 22">
  <g id="Group_12835" data-name="Group 12835" transform="translate(-1286.1 -332.239)">
    <rect id="Rectangle_2310" data-name="Rectangle 2310" width="16" height="6" rx="2" transform="translate(1286.1 332.239)" fill="#00b086"/>
    <path id="Rectangle_2310_-_Outline" data-name="Rectangle 2310 - Outline" d="M2,1A1,1,0,0,0,1,2V4A1,1,0,0,0,2,5H14a1,1,0,0,0,1-1V2a1,1,0,0,0-1-1H2M2,0H14a2,2,0,0,1,2,2V4a2,2,0,0,1-2,2H2A2,2,0,0,1,0,4V2A2,2,0,0,1,2,0Z" transform="translate(1286.1 332.239)" fill="#fff"/>
    <rect id="Rectangle_2313" data-name="Rectangle 2313" width="16" height="6" rx="2" transform="translate(1286.1 340.239)" fill="#00b086"/>
    <path id="Rectangle_2313_-_Outline" data-name="Rectangle 2313 - Outline" d="M2,1A1,1,0,0,0,1,2V4A1,1,0,0,0,2,5H14a1,1,0,0,0,1-1V2a1,1,0,0,0-1-1H2M2,0H14a2,2,0,0,1,2,2V4a2,2,0,0,1-2,2H2A2,2,0,0,1,0,4V2A2,2,0,0,1,2,0Z" transform="translate(1286.1 340.239)" fill="#fff"/>
    <rect id="Rectangle_2315" data-name="Rectangle 2315" width="16" height="6" rx="2" transform="translate(1286.1 348.239)" fill="#00b086"/>
    <path id="Rectangle_2315_-_Outline" data-name="Rectangle 2315 - Outline" d="M2,1A1,1,0,0,0,1,2V4A1,1,0,0,0,2,5H14a1,1,0,0,0,1-1V2a1,1,0,0,0-1-1H2M2,0H14a2,2,0,0,1,2,2V4a2,2,0,0,1-2,2H2A2,2,0,0,1,0,4V2A2,2,0,0,1,2,0Z" transform="translate(1286.1 348.239)" fill="#fff"/>
    <rect id="Rectangle_2311" data-name="Rectangle 2311" width="6" height="6" rx="2" transform="translate(1303.1 332.239)" fill="#00b086"/>
    <path id="Rectangle_2311_-_Outline" data-name="Rectangle 2311 - Outline" d="M2,1A1,1,0,0,0,1,2V4A1,1,0,0,0,2,5H4A1,1,0,0,0,5,4V2A1,1,0,0,0,4,1H2M2,0H4A2,2,0,0,1,6,2V4A2,2,0,0,1,4,6H2A2,2,0,0,1,0,4V2A2,2,0,0,1,2,0Z" transform="translate(1303.1 332.239)" fill="#fff"/>
    <rect id="Rectangle_2312" data-name="Rectangle 2312" width="6" height="6" rx="2" transform="translate(1303.1 340.239)" fill="#00b086"/>
    <path id="Rectangle_2312_-_Outline" data-name="Rectangle 2312 - Outline" d="M2,1A1,1,0,0,0,1,2V4A1,1,0,0,0,2,5H4A1,1,0,0,0,5,4V2A1,1,0,0,0,4,1H2M2,0H4A2,2,0,0,1,6,2V4A2,2,0,0,1,4,6H2A2,2,0,0,1,0,4V2A2,2,0,0,1,2,0Z" transform="translate(1303.1 340.239)" fill="#fff"/>
    <rect id="Rectangle_2314" data-name="Rectangle 2314" width="6" height="6" rx="2" transform="translate(1303.1 348.239)" fill="#00b086"/>
    <path id="Rectangle_2314_-_Outline" data-name="Rectangle 2314 - Outline" d="M2,1A1,1,0,0,0,1,2V4A1,1,0,0,0,2,5H4A1,1,0,0,0,5,4V2A1,1,0,0,0,4,1H2M2,0H4A2,2,0,0,1,6,2V4A2,2,0,0,1,4,6H2A2,2,0,0,1,0,4V2A2,2,0,0,1,2,0Z" transform="translate(1303.1 348.239)" fill="#fff"/>
  </g>
</svg>
