<svg xmlns="http://www.w3.org/2000/svg" width="25.391" height="24.326" viewBox="0 0 25.391 24.326">
  <g id="Group_13385" data-name="Group 13385" transform="translate(-200.25 -59.25)">
    <g id="Group_12252" data-name="Group 12252" transform="translate(200.25 59.25)">
      <path id="Ellipse_5" data-name="Ellipse 5" d="M12.7,2A10.451,10.451,0,0,0,2,12.163,10.451,10.451,0,0,0,12.7,22.326a10.451,10.451,0,0,0,10.7-10.163A10.451,10.451,0,0,0,12.7,2m0-2a12.438,12.438,0,0,1,12.7,12.163A12.438,12.438,0,0,1,12.7,24.326,12.438,12.438,0,0,1,0,12.163,12.438,12.438,0,0,1,12.7,0Z" fill="#fff"/>
      <path id="Path_9925" data-name="Path 9925" transform="translate(20.231 20.64)" fill="#fff"/>
    </g>
  </g>
</svg>
