<svg xmlns="http://www.w3.org/2000/svg" width="22" height="22" viewBox="0 0 22 22">
  <g id="Group_12834" data-name="Group 12834" transform="translate(-1274.1 -331.239)">
    <rect id="Rectangle_2308" data-name="Rectangle 2308" width="9" height="9" rx="3" transform="translate(1287.1 331.239)" fill="#fff"/>
    <path id="Rectangle_2308_-_Outline" data-name="Rectangle 2308 - Outline" d="M3,1A2,2,0,0,0,1,3V6A2,2,0,0,0,3,8H6A2,2,0,0,0,8,6V3A2,2,0,0,0,6,1H3M3,0H6A3,3,0,0,1,9,3V6A3,3,0,0,1,6,9H3A3,3,0,0,1,0,6V3A3,3,0,0,1,3,0Z" transform="translate(1287.1 331.239)" fill="#969696"/>
    <rect id="Rectangle_2309" data-name="Rectangle 2309" width="9" height="9" rx="3" transform="translate(1274.1 331.239)" fill="#fff"/>
    <path id="Rectangle_2309_-_Outline" data-name="Rectangle 2309 - Outline" d="M3,1A2,2,0,0,0,1,3V6A2,2,0,0,0,3,8H6A2,2,0,0,0,8,6V3A2,2,0,0,0,6,1H3M3,0H6A3,3,0,0,1,9,3V6A3,3,0,0,1,6,9H3A3,3,0,0,1,0,6V3A3,3,0,0,1,3,0Z" transform="translate(1274.1 331.239)" fill="#969696"/>
    <rect id="Rectangle_2310" data-name="Rectangle 2310" width="9" height="9" rx="3" transform="translate(1274.1 344.239)" fill="#fff"/>
    <path id="Rectangle_2310_-_Outline" data-name="Rectangle 2310 - Outline" d="M3,1A2,2,0,0,0,1,3V6A2,2,0,0,0,3,8H6A2,2,0,0,0,8,6V3A2,2,0,0,0,6,1H3M3,0H6A3,3,0,0,1,9,3V6A3,3,0,0,1,6,9H3A3,3,0,0,1,0,6V3A3,3,0,0,1,3,0Z" transform="translate(1274.1 344.239)" fill="#969696"/>
    <rect id="Rectangle_2311" data-name="Rectangle 2311" width="9" height="9" rx="3" transform="translate(1287.1 344.239)" fill="#fff"/>
    <path id="Rectangle_2311_-_Outline" data-name="Rectangle 2311 - Outline" d="M3,1A2,2,0,0,0,1,3V6A2,2,0,0,0,3,8H6A2,2,0,0,0,8,6V3A2,2,0,0,0,6,1H3M3,0H6A3,3,0,0,1,9,3V6A3,3,0,0,1,6,9H3A3,3,0,0,1,0,6V3A3,3,0,0,1,3,0Z" transform="translate(1287.1 344.239)" fill="#969696"/>
  </g>
</svg>
