<svg xmlns="http://www.w3.org/2000/svg" width="36" height="26" viewBox="0 0 36 26">
  <g id="Group_12588" data-name="Group 12588" transform="translate(-540.5 -253.5)">
    <path id="Line_192" data-name="Line 192" d="M10,12a1.994,1.994,0,0,1-1.414-.586l-10-10a2,2,0,0,1,0-2.828,2,2,0,0,1,2.828,0l10,10A2,2,0,0,1,10,12Z" transform="translate(542.5 267.5)" fill="#00b086"/>
    <path id="Line_193" data-name="Line 193" d="M0,24a1.994,1.994,0,0,1-1.414-.586,2,2,0,0,1,0-2.828l22-22a2,2,0,0,1,2.828,0,2,2,0,0,1,0,2.828l-22,22A1.994,1.994,0,0,1,0,24Z" transform="translate(552.5 255.5)" fill="#00b086"/>
  </g>
</svg>
