<svg id="Group_12901" data-name="Group 12901" xmlns="http://www.w3.org/2000/svg" width="25.987" height="25.987" viewBox="0 0 25.987 25.987">
  <path id="Path_10013" data-name="Path 10013" d="M119.026.763c0-.016,0-.032-.005-.049s0-.036,0-.054V.639c0-.018,0-.036,0-.054s0-.032.005-.049l0-.022c0-.02.011-.039.017-.059s.005-.025.01-.037l0,0,.008-.019c.008-.02.02-.038.03-.056s.013-.028.022-.041l.009-.013c.011-.017.025-.032.038-.048s.022-.029.035-.041l0,0,0,0c.014-.014.03-.025.045-.037s.029-.025.044-.036L119.311.1c.014-.009.03-.016.045-.024a.574.574,0,0,1,.052-.028l.019-.008.005,0c.013-.005.027-.007.04-.011s.036-.012.055-.016l.022,0c.017,0,.033,0,.05-.005s.035,0,.053,0h.022a.508.508,0,0,1,.053,0c.017,0,.034,0,.05.005l.022,0c.019,0,.037.011.056.016s.027.006.04.011l22.416,8.536c.014.005.025.013.038.019a.646.646,0,0,1,.063.032c.018.011.034.023.05.035a.6.6,0,0,1,.051.04.606.606,0,0,1,.045.047c.014.015.028.03.04.047a.662.662,0,0,1,.038.059c.007.012.017.023.023.036s0,.01.005.014a.665.665,0,0,1,.025.065c.007.018.014.036.019.055a.637.637,0,0,1,.011.064c0,.02.007.041.008.061a.589.589,0,0,1,0,.062c0,.022,0,.043,0,.064s-.008.038-.013.056a.664.664,0,0,1-.018.068s0,.01,0,.015a.636.636,0,0,1-.032.068c0,.007-.006.014-.009.02a.641.641,0,0,1-.065.094l-.02.021a.647.647,0,0,1-.063.061l-.029.023a.619.619,0,0,1-.08.051l-.016.01-9.023,4.57-4.57,9.023c0,.008-.01.013-.015.02a.663.663,0,0,1-.076.109c-.009.01-.017.021-.026.03a.637.637,0,0,1-.122.1l-.03.015a.637.637,0,0,1-.08.04c-.012,0-.025.007-.038.011l-.04.011a.653.653,0,0,1-.154.021h0a.623.623,0,0,1-.13-.015l-.032-.007a.65.65,0,0,1-.125-.046l-.005,0-.017-.011a.69.69,0,0,1-.077-.049l-.031-.024a.634.634,0,0,1-.059-.058c-.008-.008-.016-.016-.023-.025a.673.673,0,0,1-.064-.092c0-.009-.008-.018-.013-.027a.63.63,0,0,1-.029-.062l-8.53-22.4v0l0-.012c0-.012-.006-.025-.01-.037a.605.605,0,0,1-.017-.059l0-.022Zm9.259,20.7,3.79-7.483L121.352,3.256Zm4.708-8.4,7.482-3.79-18.2-6.932Z" transform="translate(-119.016 0)" fill="#fff"/>
  <path id="Path_10014" data-name="Path 10014" d="M168.173,355.146a.649.649,0,0,1,.919,0l3.669,3.669a.65.65,0,0,1-.919.919l-3.669-3.669a.65.65,0,0,1,0-.919Z" transform="translate(-151.511 -338.483)" fill="#fff"/>
  <path id="Path_10015" data-name="Path 10015" d="M71.1,322.482l3.031,3.031a.65.65,0,0,1-.919.919L70.186,323.4a.65.65,0,1,1,.919-.919Z" transform="translate(-48.339 -307.335)" fill="#fff"/>
  <path id="Path_10016" data-name="Path 10016" d="M215.5,466.872l3.031,3.031a.65.65,0,0,1-.919.919l-3.031-3.031a.65.65,0,0,1,.919-.919Z" transform="translate(-199.438 -445.024)" fill="#fff"/>
</svg>
