<svg xmlns="http://www.w3.org/2000/svg" width="46.504" height="36.441" viewBox="0 0 46.504 36.441">
  <g id="noun-user-id-3856070" transform="translate(-0.859)">
    <path id="Path_9850" data-name="Path 9850" d="M122.623,178.552H80.347a2.114,2.114,0,0,1-2.114-2.114V151.249a2.114,2.114,0,0,1,2.114-2.114H98.314a.7.7,0,0,1,0,1.409H80.347a.7.7,0,0,0-.7.7v25.189a.7.7,0,0,0,.7.7h42.276a.7.7,0,0,0,.7-.7V151.249a.7.7,0,0,0-.7-.7H104.655a.7.7,0,0,1,0-1.409h17.967a2.114,2.114,0,0,1,2.114,2.114v25.189a2.114,2.114,0,0,1-2.114,2.114Z" transform="translate(-77.374 -142.111)" fill="#046835"/>
    <path id="Path_9851" data-name="Path 9851" d="M311.044,78.277h-4.932a1.409,1.409,0,0,1-1.409-1.409v-8.42a1.409,1.409,0,0,1,1.409-1.409h4.932a1.409,1.409,0,0,1,1.409,1.409V76.9h0a1.409,1.409,0,0,1-1.409,1.374Zm-4.932-9.829V76.9h4.932V68.448Z" transform="translate(-284.468 -67.039)" fill="#046835"/>
    <path id="Path_9852" data-name="Path 9852" d="M124.034,236.447H78.94a.7.7,0,0,1,0-1.409h45.094a.7.7,0,0,1,0,1.409Z" transform="translate(-77.377 -220.664)" fill="#046835"/>
    <path id="Path_9853" data-name="Path 9853" d="M342.47,257a.7.7,0,0,1-.7-.7V235.742a.7.7,0,1,1,1.409,0v20.553a.7.7,0,0,1-.7.7Z" transform="translate(-318.36 -220.664)" fill="#046835"/>
    <path id="Path_9854" data-name="Path 9854" d="M404.35,297.54h12.894v1.409H404.35Z" transform="translate(-375.589 -277.819)" fill="#046835"/>
    <path id="Path_9855" data-name="Path 9855" d="M404.35,355.19h12.894V356.6H404.35Z" transform="translate(-375.589 -330.536)" fill="#046835"/>
    <path id="Path_9856" data-name="Path 9856" d="M404.35,412.84h12.894v1.409H404.35Z" transform="translate(-375.589 -383.254)" fill="#046835"/>
    <path id="Path_9857" data-name="Path 9857" d="M186.987,295.58a3.178,3.178,0,1,1,2.247-.931A3.178,3.178,0,0,1,186.987,295.58Zm0-4.932a.732.732,0,1,0,0-.007Z" transform="translate(-173.918 -270.214)" fill="#046835"/>
    <path id="Path_9858" data-name="Path 9858" d="M152.934,354.83h-9.04a2.275,2.275,0,0,1-1.846-.952,2.19,2.19,0,0,1-.3-2.015,7.046,7.046,0,0,1,13.338,0,2.2,2.2,0,0,1-.3,2.008,2.3,2.3,0,0,1-1.853.958Zm-4.517-6.341h0a5.637,5.637,0,0,0-5.341,3.833.816.816,0,0,0,.113.7.873.873,0,0,0,.7.36h9.04a.867.867,0,0,0,.7-.36.816.816,0,0,0,.113-.7,5.637,5.637,0,0,0-5.334-3.833Z" transform="translate(-135.341 -323.13)" fill="#046835"/>
  </g>
</svg>
