<svg id="noun-download-4879420" xmlns="http://www.w3.org/2000/svg" width="34.986" height="31.601" viewBox="0 0 34.986 31.601">
  <path id="Path_6311" data-name="Path 6311" d="M88.621,50.711a1.052,1.052,0,0,1,1.552-1.42l4.745,5.183V35.323a1.052,1.052,0,0,1,2.1,0v19.15l4.745-5.183a1.052,1.052,0,0,1,1.552,1.421l-6.574,7.18a1.05,1.05,0,0,1-1.552,0Zm23.133,2.429a1.053,1.053,0,0,0-1.052,1.053v9.6H79.924v-9.6a1.053,1.053,0,0,0-2.1,0V64.839a1.052,1.052,0,0,0,1.052,1.053h32.882a1.051,1.051,0,0,0,1.052-1.051V54.192a1.053,1.053,0,0,0-1.052-1.053Z" transform="translate(-77.82 -34.291)" fill="#046835" fill-rule="evenodd"/>
</svg>
