<svg xmlns="http://www.w3.org/2000/svg" width="35.998" height="35.997" viewBox="0 0 35.998 35.997">
  <g id="noun-ask-1221806" transform="translate(-165.2 -95.197)">
    <path id="Path_10277" data-name="Path 10277" d="M183.2,95.2a17.982,17.982,0,0,0-14.89,28.089l-.927,4.418c-.11.77.32,1.309,1.309,1.309l4.418-.873a18.428,18.428,0,0,0,10.09,3.054,18,18,0,1,0,0-36Zm0,34.361a16.3,16.3,0,0,1-9.545-3.054.672.672,0,0,0-.436-.109l-4.091.818.818-4.091a.424.424,0,0,0-.109-.436,16.385,16.385,0,1,1,13.363,6.872Zm6.272-19.8A6.224,6.224,0,0,1,185,115.923a1.342,1.342,0,0,0-.982,1.309v1.418a.818.818,0,1,1-1.636,0v-1.418a3.046,3.046,0,0,1,2.127-2.891,4.633,4.633,0,0,0,3.327-4.581,4.741,4.741,0,0,0-4.527-4.527,4.657,4.657,0,0,0-4.8,4.636.818.818,0,1,1-1.636,0,6.289,6.289,0,0,1,6.436-6.272,6.5,6.5,0,0,1,6.163,6.163Zm-5.181,12.163a1.091,1.091,0,1,1-1.091-1.091A1.094,1.094,0,0,1,184.289,121.923Z" fill="#d3af2a"/>
  </g>
</svg>
