<svg xmlns="http://www.w3.org/2000/svg" width="23.798" height="23.8" viewBox="0 0 23.798 23.8">
  <g id="noun-phone-5135772" transform="translate(-74.669 -4.69)">
    <path id="Path_10383" data-name="Path 10383" d="M98.226,21.369a2.37,2.37,0,0,0-1.891-1.6l-5.06-.8a2.406,2.406,0,0,0-2.242.859c-.093.115-.181.233-.312.395a10.757,10.757,0,0,1-5.729-5.84c.091-.062.179-.127.267-.2h0a2.407,2.407,0,0,0,.874-2.277L83.27,6.764A2.358,2.358,0,0,0,81.608,4.87a4.626,4.626,0,0,0-.454-.1,5.445,5.445,0,0,0-4.508,1.269,5.7,5.7,0,0,0-1.977,4.311V10.5A18.494,18.494,0,0,0,92.658,28.49h.155a5.691,5.691,0,0,0,4.328-1.99,5.4,5.4,0,0,0,1.243-4.485,4.73,4.73,0,0,0-.159-.646Zm-2,4.34a4.539,4.539,0,0,1-3.537,1.569A17.285,17.285,0,0,1,75.88,10.473v-.123a4.493,4.493,0,0,1,1.56-3.4,4.215,4.215,0,0,1,3.505-.993,3.366,3.366,0,0,1,.337.076,1.143,1.143,0,0,1,.795.927l.856,5.146a1.191,1.191,0,0,1-.425,1.13c-.068.053-.137.1-.207.152h0a1.248,1.248,0,0,0-.476,1.539,12.33,12.33,0,0,0,6.41,6.409,1.245,1.245,0,0,0,1.533-.474c.061-.092.127-.181.2-.268a1.2,1.2,0,0,1,1.113-.426l5.059.8h0a1.166,1.166,0,0,1,.934.779,3.482,3.482,0,0,1,.121.484,4.188,4.188,0,0,1-.967,3.478Z" fill="#00b086"/>
    <path id="Path_10384" data-name="Path 10384" d="M396.44,62.725a.6.6,0,1,0,1.208,0,7.423,7.423,0,0,0-7.4-7.4.605.605,0,1,0,0,1.21,6.213,6.213,0,0,1,6.192,6.192Z" transform="translate(-301.36 -48.444)" fill="#00b086"/>
    <path id="Path_10385" data-name="Path 10385" d="M366.865,141.59a.605.605,0,1,0,0,1.21,3.492,3.492,0,0,1,3.477,3.476.6.6,0,1,0,1.208-.006,4.7,4.7,0,0,0-4.68-4.68Z" transform="translate(-278.986 -130.982)" fill="#00b086"/>
  </g>
</svg>
