<svg xmlns="http://www.w3.org/2000/svg" width="32.641" height="32.641" viewBox="0 0 32.641 32.641">
  <g id="noun-time-1015011" transform="translate(-4.115)">
    <path id="Path_6348" data-name="Path 6348" d="M117.12,30.8a16.32,16.32,0,1,0,16.32,16.32A16.339,16.339,0,0,0,117.12,30.8Zm0,30.807a14.487,14.487,0,1,1,14.487-14.487A14.5,14.5,0,0,1,117.12,61.608Zm8.985-15.4h-8.068V35.691a.917.917,0,0,0-1.834,0V47.121a.917.917,0,0,0,.917.917h8.985a.917.917,0,0,0,0-1.834Z" transform="translate(-96.685 -30.801)" fill="#046835"/>
  </g>
</svg>
