<svg xmlns="http://www.w3.org/2000/svg" width="19.127" height="23.848" viewBox="0 0 19.127 23.848">
  <path id="noun-pin-2633136" d="M147.935,40.733a.794.794,0,0,0,1.224,0l6.713-8h0a9.4,9.4,0,0,0-.588-12.774,9.573,9.573,0,0,0-13.5,0,9.4,9.4,0,0,0-.588,12.774Zm-5-19.645a7.944,7.944,0,0,1,11.233,0,7.8,7.8,0,0,1,.484,10.621l-6.1,7.277-6.1-7.277a7.8,7.8,0,0,1,.484-10.621Zm5.617,10.4a4.766,4.766,0,1,0-3.37-1.4A4.766,4.766,0,0,0,148.546,31.486Zm0-7.944a3.178,3.178,0,1,1-2.247.931A3.177,3.177,0,0,1,148.546,23.542Z" transform="translate(-138.967 -17.172)" fill="#00b086"/>
</svg>
