<svg id="noun-shopping-cart-4922140" xmlns="http://www.w3.org/2000/svg" width="20.243" height="18.219" viewBox="0 0 20.243 18.219">
  <path id="Path_5345" data-name="Path 5345" d="M230.176,375.029h-.066a1.5,1.5,0,0,0-.261-.478,2.435,2.435,0,0,0-.777-.62,5.074,5.074,0,0,0-2.338-.521h-6.073a5.076,5.076,0,0,0-2.338.521,2.408,2.408,0,0,0-.777.62,1.5,1.5,0,0,0-.261.478h-.066a1.62,1.62,0,1,0,.84.235,1.289,1.289,0,0,1,.645-.62,4.238,4.238,0,0,1,1.956-.425h6.073a4.24,4.24,0,0,1,1.956.425,1.29,1.29,0,0,1,.645.62,1.619,1.619,0,1,0,.84-.235Zm-12.956,2.429a.81.81,0,1,1,.81-.81A.812.812,0,0,1,217.22,377.459Zm12.956,0a.81.81,0,1,1,.81-.81A.812.812,0,0,1,230.176,377.459Z" transform="translate(-211.552 -360.049)" fill="#046835"/>
  <path id="Path_5346" data-name="Path 5346" d="M133.735,90.68h8.775a1.587,1.587,0,0,0,1.528-1.169l1.786-6.549a1.583,1.583,0,0,0-1.528-2h-10.37a.738.738,0,0,1,.058.291v.519H144.3a.762.762,0,0,1,.615.3.771.771,0,0,1,.132.673L143.257,89.3a.774.774,0,0,1-.746.572h-8.776a.773.773,0,0,1-.734-.531l-2.523-7.566h4.327v-.519a.738.738,0,0,1,.058-.291h-4.656L129.49,78.8a1.579,1.579,0,0,0-1.5-1.08h-1.579a.4.4,0,0,0,0,.81h1.579a.77.77,0,0,1,.734.529L132.232,89.6a1.581,1.581,0,0,0,1.5,1.083Z" transform="translate(-126.002 -77.724)" fill="#046835"/>
</svg>
