<svg xmlns="http://www.w3.org/2000/svg" width="37.055" height="46.752" viewBox="0 0 37.055 46.752">
  <g id="noun-password-4782744" transform="translate(0.75 0.75)">
    <path id="Path_9846" data-name="Path 9846" d="M188.207,51.162V47.93a12.929,12.929,0,0,0-25.858,0v3.232a4.848,4.848,0,0,0-4.848,4.848V75.4a4.848,4.848,0,0,0,4.848,4.848h25.858a4.848,4.848,0,0,0,4.848-4.848V56.011a4.848,4.848,0,0,0-4.848-4.848ZM165.581,47.93a9.7,9.7,0,1,1,19.394,0v3.232H165.581ZM189.823,75.4a1.616,1.616,0,0,1-1.616,1.616H162.348a1.616,1.616,0,0,1-1.616-1.616V56.011a1.616,1.616,0,0,1,1.616-1.616h25.858a1.616,1.616,0,0,1,1.616,1.616Z" transform="translate(-157.5 -35.001)" fill="#046835"/>
    <path id="Path_9846_-_Outline" data-name="Path 9846 - Outline" d="M175.278,34.251A13.679,13.679,0,0,1,188.957,47.93v2.532a5.6,5.6,0,0,1,4.848,5.549V75.4a5.6,5.6,0,0,1-5.6,5.6H162.348a5.6,5.6,0,0,1-5.6-5.6V56.011a5.6,5.6,0,0,1,4.848-5.549V47.93a13.68,13.68,0,0,1,13.679-13.679ZM188.207,79.5a4.1,4.1,0,0,0,4.1-4.1V56.011a4.1,4.1,0,0,0-4.1-4.1h-.75V47.93a12.179,12.179,0,0,0-24.358,0v3.982h-.75a4.1,4.1,0,0,0-4.1,4.1V75.4a4.1,4.1,0,0,0,4.1,4.1Zm-12.929-42.02A10.446,10.446,0,0,1,185.724,47.93v3.982H164.831V47.93a10.447,10.447,0,0,1,10.447-10.447Zm8.947,12.929V47.93a8.947,8.947,0,1,0-17.894,0v2.482Zm-21.876,3.232h25.858a2.366,2.366,0,0,1,2.366,2.366V75.4a2.366,2.366,0,0,1-2.366,2.366H162.348a2.366,2.366,0,0,1-2.366-2.366V56.011a2.366,2.366,0,0,1,2.366-2.366Zm25.858,22.626a.866.866,0,0,0,.866-.866V56.011a.866.866,0,0,0-.866-.866H162.348a.866.866,0,0,0-.866.866V75.4a.866.866,0,0,0,.866.866Z" transform="translate(-157.5 -35.001)" fill="#fff"/>
    <path id="Path_9847" data-name="Path 9847" d="M335.732,351.616A1.616,1.616,0,1,1,334.116,350a1.616,1.616,0,0,1,1.616,1.616" transform="translate(-316.339 -320.909)" fill="#046835"/>
    <path id="Path_9847_-_Outline" data-name="Path 9847 - Outline" d="M334.116,353.982a2.366,2.366,0,1,1,2.366-2.366A2.369,2.369,0,0,1,334.116,353.982Zm0-3.232a.866.866,0,1,0,.866.866A.867.867,0,0,0,334.116,350.75Z" transform="translate(-316.339 -320.909)" fill="#fff"/>
    <path id="Path_9848" data-name="Path 9848" d="M265.732,351.616A1.616,1.616,0,1,1,264.116,350a1.616,1.616,0,0,1,1.616,1.616" transform="translate(-252.803 -320.909)" fill="#046835"/>
    <path id="Path_9848_-_Outline" data-name="Path 9848 - Outline" d="M264.116,353.982a2.366,2.366,0,1,1,2.366-2.366A2.369,2.369,0,0,1,264.116,353.982Zm0-3.232a.866.866,0,1,0,.866.866A.867.867,0,0,0,264.116,350.75Z" transform="translate(-252.803 -320.909)" fill="#fff"/>
    <path id="Path_9849" data-name="Path 9849" d="M405.732,351.616A1.616,1.616,0,1,1,404.116,350a1.616,1.616,0,0,1,1.616,1.616" transform="translate(-379.874 -320.909)" fill="#046835"/>
    <path id="Path_9849_-_Outline" data-name="Path 9849 - Outline" d="M404.116,353.982a2.366,2.366,0,1,1,2.366-2.366A2.369,2.369,0,0,1,404.116,353.982Zm0-3.232a.866.866,0,1,0,.866.866A.867.867,0,0,0,404.116,350.75Z" transform="translate(-379.874 -320.909)" fill="#fff"/>
  </g>
</svg>
