<svg xmlns="http://www.w3.org/2000/svg" width="37.765" height="35.667" viewBox="0 0 37.765 35.667">
  <g id="noun-date-of-birth-4974714" transform="translate(-373.118 -238.503)">
    <path id="Path_9923" data-name="Path 9923" d="M144.2,105.669H173.57a4.2,4.2,0,0,0,4.2-4.2V76.3a4.2,4.2,0,0,0-4.2-4.2h-4.2V71.051a1.049,1.049,0,0,0-2.1,0V72.1H150.492V71.051a1.049,1.049,0,1,0-2.1,0V72.1h-4.2a4.2,4.2,0,0,0-4.2,4.2v25.177a4.2,4.2,0,0,0,4.2,4.2ZM142.1,76.3a2.1,2.1,0,0,1,2.1-2.1h4.2v3.147h0a1.049,1.049,0,0,0,2.1,0V74.2h16.784v3.147a1.049,1.049,0,0,0,2.1,0V74.2h4.2a2.1,2.1,0,0,1,2.1,2.1v3.147H146.3a1.049,1.049,0,1,0,0,2.1h29.373v19.932a2.1,2.1,0,0,1-2.1,2.1H144.2a2.1,2.1,0,0,1-2.1-2.1Z" transform="translate(233.116 168.5)" fill="#046835"/>
    <path id="Path_9924" data-name="Path 9924" d="M269.477,237.022h.178a1.05,1.05,0,0,0,.86-1.217,5.245,5.245,0,1,1,10.406-.881,5.4,5.4,0,0,1-.073.881,1.063,1.063,0,1,0,2.1.346,7.343,7.343,0,0,0-4.123-7.878,4.2,4.2,0,1,0-6.2,0,7.344,7.344,0,0,0-4.291,6.651,7.231,7.231,0,0,0,.116,1.228,1.049,1.049,0,0,0,1.028.871Zm6.2-13.638a2.1,2.1,0,1,1-1.484.615A2.1,2.1,0,0,1,275.676,223.384Z" transform="translate(116.324 30.854)" fill="#046835"/>
  </g>
</svg>
