<svg xmlns="http://www.w3.org/2000/svg" width="23.925" height="17.524" viewBox="0 0 23.925 17.524">
  <g id="noun-email-5130078" transform="translate(-75.9 -79.234)">
    <path id="Path_10342" data-name="Path 10342" d="M97.769,79.234H77.956A2.058,2.058,0,0,0,75.9,81.291V94.7h0a2.058,2.058,0,0,0,2.056,2.056H97.769A2.058,2.058,0,0,0,99.825,94.7V81.29a2.058,2.058,0,0,0-2.056-2.056Zm-4.934,7.784,5.858-5.859a.92.92,0,0,1,.011.132V94.563Zm4.934-6.663a.938.938,0,0,1,.131.01L87.863,90.4,77.825,80.366a.914.914,0,0,1,.131-.01ZM77.021,94.562V81.29a.919.919,0,0,1,.011-.132l5.858,5.859Zm.935,1.074a.933.933,0,0,1-.309-.053l6.042-7.768,3.777,3.778a.561.561,0,0,0,.793,0l3.777-3.778,6.04,7.767a.933.933,0,0,1-.309.053Z" transform="translate(0 0)" fill="#00b086"/>
  </g>
</svg>
