<svg xmlns="http://www.w3.org/2000/svg" width="47.445" height="27.97" viewBox="0 0 47.445 27.97">
  <g transform="translate(16882.998 -15877.5)">
    <path id="Path_9932" data-name="Path 9932" d="M176.582,192.171l11.987-12.735a.769.769,0,0,1,1.066-.035.788.788,0,0,1,.035,1.066l-10.793,11.471h43.217a.749.749,0,1,1,0,1.5H178.877l10.793,11.471a.784.784,0,0,1-.035,1.065.762.762,0,0,1-1.066-.035L176.582,193.2a.8.8,0,0,1,0-1.03Z" transform="translate(-17058.896 15698.797)" fill="#676767"/>
    <path id="Path_9932_-_Outline" data-name="Path 9932 - Outline" d="M189.125,178.7a1.224,1.224,0,0,1,.857.338,1.281,1.281,0,0,1,.052,1.767l-10,10.629h42.06a1.249,1.249,0,1,1,0,2.5h-42.06l10,10.629a1.283,1.283,0,0,1-.057,1.773,1.241,1.241,0,0,1-.851.336,1.285,1.285,0,0,1-.909-.381l-.012-.012-12.011-12.763a1.308,1.308,0,0,1-.112-1.5v-.043l.136-.146,11.987-12.735A1.276,1.276,0,0,1,189.125,178.7Zm32.969,14.233a.249.249,0,1,0,0-.5H177.72l11.585-12.314a.291.291,0,0,0-.018-.363.237.237,0,0,0-.162-.057.27.27,0,0,0-.195.079l-11.965,12.713a.306.306,0,0,0,0,.381l11.965,12.712a.284.284,0,0,0,.2.086.244.244,0,0,0,.168-.066.288.288,0,0,0,.012-.359L177.72,192.936Z" transform="translate(-17058.896 15698.797)" fill="#676767"/>
  </g>
</svg>
