<svg xmlns="http://www.w3.org/2000/svg" width="47.445" height="27.97" viewBox="0 0 47.445 27.97">
  <g transform="translate(15596.5 -15877.5)">
    <path id="Path_9931" data-name="Path 9931" d="M222.656,192.171,210.67,179.435a.769.769,0,0,0-1.066-.035.788.788,0,0,0-.035,1.066l10.793,11.471H177.145a.749.749,0,1,0,0,1.5h43.216l-10.793,11.471a.784.784,0,0,0,.035,1.065.762.762,0,0,0,1.066-.035L222.656,193.2a.8.8,0,0,0,0-1.03Z" transform="translate(-15772.396 15698.797)" fill="#676767"/>
    <path id="Path_9931_-_Outline" data-name="Path 9931 - Outline" d="M210.114,178.7a1.274,1.274,0,0,1,.917.386l12.126,12.883v.044a1.308,1.308,0,0,1-.112,1.5l-.024.027-12,12.747a1.284,1.284,0,0,1-.909.381,1.241,1.241,0,0,1-.851-.336,1.283,1.283,0,0,1-.058-1.772l10-10.629H177.145a1.249,1.249,0,1,1,0-2.5H219.2l-10-10.629a1.281,1.281,0,0,1,.052-1.768A1.224,1.224,0,0,1,210.114,178.7Zm12.156,13.786-11.964-12.711a.268.268,0,0,0-.192-.075.237.237,0,0,0-.162.057.291.291,0,0,0-.017.364l11.585,12.313H177.145a.249.249,0,1,0,0,.5h44.373L209.933,205.25a.288.288,0,0,0,.013.358.244.244,0,0,0,.167.065.284.284,0,0,0,.2-.086l11.965-12.712a.306.306,0,0,0,0-.381Z" transform="translate(-15772.396 15698.797)" fill="#676767"/>
  </g>
</svg>
