<svg xmlns="http://www.w3.org/2000/svg" width="34" height="27" viewBox="0 0 34 27">
  <g id="S_08.14.01_Service-V2---Content-steps-main-view" data-name="S#08.14.01_Service-V2---Content-steps-main-view" transform="translate(-989 -426)">
    <g id="Group-4" transform="translate(949 205)">
      <g id="noun-devices-169626" transform="translate(40 221)">
        <path id="Shape" d="M23.016,20.872a.754.754,0,0,1-.758.75H15.7v3.507h4.411a.749.749,0,1,1,0,1.5H9.929a.749.749,0,1,1,0-1.5h4.256V21.622H4.153A4.134,4.134,0,0,1,0,17.517V4.1A4.134,4.134,0,0,1,4.153,0H25.735a4.134,4.134,0,0,1,4.153,4.1V9.969a.758.758,0,0,1-1.516,0V4.1A2.624,2.624,0,0,0,25.735,1.5H4.152A2.624,2.624,0,0,0,1.516,4.1V17.517a2.624,2.624,0,0,0,2.636,2.606H22.258a.754.754,0,0,1,.758.75ZM34,14.882v9.3A2.84,2.84,0,0,1,31.147,27H27.112a2.84,2.84,0,0,1-2.853-2.82v-9.3a2.84,2.84,0,0,1,2.853-2.82h4.035A2.841,2.841,0,0,1,34,14.882Zm-1.516,0a1.331,1.331,0,0,0-1.337-1.322H27.112a1.331,1.331,0,0,0-1.337,1.322v9.3A1.331,1.331,0,0,0,27.112,25.5h4.035a1.331,1.331,0,0,0,1.337-1.322Z" fill="#066058"/>
      </g>
    </g>
  </g>
</svg>
