<svg xmlns="http://www.w3.org/2000/svg" xmlns:xlink="http://www.w3.org/1999/xlink" width="19.727" height="18.069" viewBox="0 0 19.727 18.069">
  <defs>
    <clipPath id="clip-path">
      <rect id="Rectangle_307" data-name="Rectangle 307" width="18.726" height="17.196" fill="none" stroke="#fff" stroke-width="1"/>
    </clipPath>
  </defs>
  <g id="Vector_Smart_Object_copy_8" data-name="Vector Smart Object copy 8" transform="translate(0.5 0.5)">
    <g id="Vector_Smart_Object_copy_8-2" data-name="Vector Smart Object copy 8" transform="translate(0 0)">
      <g id="Group_953" data-name="Group 953">
        <g id="Group_952" data-name="Group 952">
          <g id="Group_951" data-name="Group 951" clip-path="url(#clip-path)">
            <path id="Path_2418" data-name="Path 2418" d="M771.209,1632.235l-1.662-1.606a54.821,54.821,0,0,1-5.955-5.6,8.208,8.208,0,0,1-2.34-5.325,5.562,5.562,0,0,1,5.7-5.542,6.249,6.249,0,0,1,4.258,1.7,6.25,6.25,0,0,1,4.258-1.7,5.562,5.562,0,0,1,5.7,5.542,8.208,8.208,0,0,1-2.34,5.325,54.816,54.816,0,0,1-5.955,5.6Zm-4.258-17.069a4.573,4.573,0,0,0-4.7,4.542c0,3.19,2.876,5.812,7.958,10.172l.022.02.978.945,1-.965c5.082-4.36,7.958-6.982,7.958-10.172a4.573,4.573,0,0,0-4.7-4.542,5.287,5.287,0,0,0-3.882,1.755l-.377.432-.377-.432A5.287,5.287,0,0,0,766.951,1615.167Z" transform="translate(-761.751 -1614.667)" fill="#fff"/>
          </g>
        </g>
      </g>
    </g>
    <path id="Color_Overlay" data-name="Color Overlay" d="M9.458,17.569,7.8,15.963a54.828,54.828,0,0,1-5.956-5.6A8.207,8.207,0,0,1-.5,5.042,5.563,5.563,0,0,1,5.2-.5,6.25,6.25,0,0,1,9.458,1.2,6.25,6.25,0,0,1,13.716-.5a5.589,5.589,0,0,1,5.492,4.022l.019.066V6.554l-.016.062c-.776,2.953-3.58,5.477-8.091,9.346ZM5.2.5A4.574,4.574,0,0,0,.5,5.042c0,3.19,2.876,5.812,7.958,10.171l.022.02.978.945,1-.965c4.337-3.72,7.043-6.145,7.769-8.79v-2.7A4.6,4.6,0,0,0,13.716.5,5.288,5.288,0,0,0,9.835,2.255l-.377.432-.377-.432A5.288,5.288,0,0,0,5.2.5Z" fill="#fff"/>
  </g>
</svg>
